<mxfile host="65bd71144e">
    <diagram id="opuSQnizYbMFhAYQ-Ce2" name="第 1 页">
        <mxGraphModel dx="1002" dy="576" grid="0" gridSize="10" guides="1" tooltips="1" connect="1" arrows="1" fold="1" page="0" pageScale="1" pageWidth="827" pageHeight="1169" math="0" shadow="0">
            <root>
                <mxCell id="0"/>
                <mxCell id="1" parent="0"/>
                <mxCell id="2" value="&lt;font color=&quot;#ff8000&quot; style=&quot;font-size: 18px;&quot;&gt;core A&lt;/font&gt;" style="whiteSpace=wrap;html=1;aspect=fixed;shadow=0;glass=0;rounded=0;" vertex="1" parent="1">
                    <mxGeometry x="255" y="133" width="80" height="80" as="geometry"/>
                </mxCell>
                <mxCell id="3" value="&lt;font color=&quot;#ff8000&quot; style=&quot;font-size: 18px;&quot;&gt;core B&lt;/font&gt;" style="whiteSpace=wrap;html=1;aspect=fixed;shadow=0;glass=0;rounded=0;" vertex="1" parent="1">
                    <mxGeometry x="447" y="133" width="80" height="80" as="geometry"/>
                </mxCell>
                <mxCell id="4" value="&lt;font color=&quot;#ff8000&quot;&gt;&lt;span style=&quot;font-size: 18px;&quot;&gt;Process 1&lt;/span&gt;&lt;/font&gt;" style="whiteSpace=wrap;html=1;aspect=fixed;shadow=0;glass=0;rounded=0;sketch=1;curveFitting=1;jiggle=2;" vertex="1" parent="1">
                    <mxGeometry x="255" y="247" width="80" height="80" as="geometry"/>
                </mxCell>
                <mxCell id="5" value="&lt;font color=&quot;#ff8000&quot;&gt;&lt;span style=&quot;font-size: 18px;&quot;&gt;Process 2&lt;/span&gt;&lt;/font&gt;" style="whiteSpace=wrap;html=1;aspect=fixed;shadow=0;glass=0;rounded=0;sketch=1;curveFitting=1;jiggle=2;" vertex="1" parent="1">
                    <mxGeometry x="447" y="247" width="80" height="80" as="geometry"/>
                </mxCell>
                <mxCell id="7" value="" style="html=1;verticalLabelPosition=bottom;labelBackgroundColor=#ffffff;verticalAlign=top;shadow=0;dashed=0;strokeWidth=2;shape=mxgraph.ios7.misc.loading_circle;rounded=0;glass=0;sketch=0;fontSize=18;fontColor=#FF8000;" vertex="1" parent="1">
                    <mxGeometry x="541" y="113" width="40" height="40" as="geometry"/>
                </mxCell>
                <mxCell id="8" value="spin" style="text;html=1;align=center;verticalAlign=middle;resizable=0;points=[];autosize=1;strokeColor=none;fillColor=none;fontSize=18;fontColor=#FF8000;" vertex="1" parent="1">
                    <mxGeometry x="595" y="113" width="51" height="34" as="geometry"/>
                </mxCell>
                <mxCell id="9" value="core B 下面的所有进程都要等待" style="text;html=1;align=center;verticalAlign=middle;resizable=0;points=[];autosize=1;strokeColor=none;fillColor=none;fontSize=18;fontColor=#FF8000;" vertex="1" parent="1">
                    <mxGeometry x="416" y="340" width="273" height="34" as="geometry"/>
                </mxCell>
                <mxCell id="10" value="这里一直在&lt;br&gt;执行wile语句" style="text;html=1;align=center;verticalAlign=middle;resizable=0;points=[];autosize=1;strokeColor=none;fillColor=none;fontSize=18;fontColor=#FF8000;" vertex="1" parent="1">
                    <mxGeometry x="558" y="165" width="121" height="55" as="geometry"/>
                </mxCell>
            </root>
        </mxGraphModel>
    </diagram>
</mxfile>